# xmcd
# 
# Track frame offsets:
#     150
#     19347
#     30987
#     45077
#     58462
#     68220
#     85837
#     98495
#     113050
#     121847
#     136155
#     150137
#     161347
#     172950
#     186360
#     202405
#     221550
#     236570
#     253245
#     265727
#     279927
#     289382
#     310492
# 
# Disc length: 4252
# 
# Revision: 2
# Processed by: cddbd v1.5.2PL0 Copyright (c) Steve Scherf et al.
# Submitted via: fre:ac v1.0.31
# 
DISCID=41109a17
DTITLE=Bobbie Gentry - Chickasaw County Child - The Artistry of Bobbie Gentry
DYEAR=2004
DGENRE=Country
TTITLE0=Ode to Billie Joe
TTITLE1=Papa, Won't You Let Me Go to Town With You?
TTITLE2=Mississippi Delta
TTITLE3=I Saw an Angel Die
TTITLE4=Bugs
TTITLE5=Hurry, Tuesday Child
TTITLE6=Chickasaw County Child
TTITLE7=Okolona River Bottom Band
TTITLE8=Penduli Pendulum
TTITLE9=Mornin' Glory
TTITLE10=Jessye' Lisabeth
TTITLE11=Refractions
TTITLE12=Casket Vignette
TTITLE13=Hushabye Mountain
TTITLE14=The Girl From Cincinnati
TTITLE15=Fancy
TTITLE16=Apartment 21
TTITLE17=Benjamin
TTITLE18=Marigolds and Tangerines
TTITLE19=Beverly
TTITLE20=Billy the Kid
TTITLE21=Lookin' In
TTITLE22=Another Place, Another Time
EXTD=YEAR: 2004
EXTT0=
EXTT1=
EXTT2=
EXTT3=
EXTT4=
EXTT5=
EXTT6=
EXTT7=
EXTT8=
EXTT9=
EXTT10=
EXTT11=
EXTT12=
EXTT13=
EXTT14=
EXTT15=
EXTT16=
EXTT17=
EXTT18=
EXTT19=
EXTT20=
EXTT21=
EXTT22=
PLAYORDER=
